<mxfile host="Electron" modified="2023-11-09T22:38:23.321Z" agent="Mozilla/5.0 (Windows NT 10.0; Win64; x64) AppleWebKit/537.36 (KHTML, like Gecko) draw.io/21.6.8 Chrome/114.0.5735.289 Electron/25.5.0 Safari/537.36" etag="dAzkYD0g9H6gytAh2Qe5" version="21.6.8" type="device">
  <diagram name="Page-1" id="gyyDSGazCo7G3bEdpTRx">
    <mxGraphModel dx="3149" dy="3088" grid="1" gridSize="10" guides="1" tooltips="1" connect="1" arrows="1" fold="1" page="1" pageScale="1" pageWidth="1169" pageHeight="1654" math="0" shadow="0">
      <root>
        <mxCell id="0" />
        <mxCell id="1" parent="0" />
        <mxCell id="T9fNchp1gU0LkEgGzQ4X-28" value="&lt;p style=&quot;margin:0px;margin-top:4px;margin-left:10px;text-align:left;&quot;&gt;&lt;b&gt;CD &lt;/b&gt;Player&lt;/p&gt;" style="html=1;shape=mxgraph.sysml.package;html=1;overflow=fill;whiteSpace=wrap;" vertex="1" parent="1">
          <mxGeometry x="-40" y="4" width="1790" height="1436" as="geometry" />
        </mxCell>
        <mxCell id="T9fNchp1gU0LkEgGzQ4X-26" style="edgeStyle=orthogonalEdgeStyle;rounded=0;orthogonalLoop=1;jettySize=auto;html=1;" edge="1" parent="1" source="T9fNchp1gU0LkEgGzQ4X-22" target="T9fNchp1gU0LkEgGzQ4X-36">
          <mxGeometry relative="1" as="geometry">
            <Array as="points">
              <mxPoint x="600" y="60" />
            </Array>
          </mxGeometry>
        </mxCell>
        <mxCell id="I8XCcLXyzaf88g92L11y-33" style="edgeStyle=orthogonalEdgeStyle;rounded=0;orthogonalLoop=1;jettySize=auto;html=1;" parent="1" source="T9fNchp1gU0LkEgGzQ4X-5" target="I8XCcLXyzaf88g92L11y-1" edge="1">
          <mxGeometry relative="1" as="geometry">
            <mxPoint x="1080" y="1040" as="sourcePoint" />
            <Array as="points">
              <mxPoint x="880" y="1035" />
              <mxPoint x="880" y="1035" />
            </Array>
          </mxGeometry>
        </mxCell>
        <mxCell id="I8XCcLXyzaf88g92L11y-37" style="edgeStyle=orthogonalEdgeStyle;rounded=0;orthogonalLoop=1;jettySize=auto;html=1;" parent="1" source="I8XCcLXyzaf88g92L11y-1" target="I8XCcLXyzaf88g92L11y-17" edge="1">
          <mxGeometry relative="1" as="geometry">
            <Array as="points">
              <mxPoint x="550" y="670" />
            </Array>
          </mxGeometry>
        </mxCell>
        <mxCell id="I8XCcLXyzaf88g92L11y-41" style="edgeStyle=orthogonalEdgeStyle;rounded=0;orthogonalLoop=1;jettySize=auto;html=1;" parent="1" source="I8XCcLXyzaf88g92L11y-1" target="I8XCcLXyzaf88g92L11y-26" edge="1">
          <mxGeometry relative="1" as="geometry" />
        </mxCell>
        <mxCell id="I8XCcLXyzaf88g92L11y-54" style="edgeStyle=orthogonalEdgeStyle;rounded=0;orthogonalLoop=1;jettySize=auto;html=1;" parent="1" source="I8XCcLXyzaf88g92L11y-1" edge="1">
          <mxGeometry relative="1" as="geometry">
            <Array as="points">
              <mxPoint x="870" y="1110" />
              <mxPoint x="870" y="1110" />
            </Array>
            <mxPoint x="880" y="1110" as="targetPoint" />
          </mxGeometry>
        </mxCell>
        <mxCell id="I8XCcLXyzaf88g92L11y-1" value="&lt;span style=&quot;font-weight: 400;&quot;&gt;&amp;lt;&amp;lt;control&amp;gt;&amp;gt;&lt;br&gt;ReceivingHitControl&lt;br&gt;&lt;/span&gt;" style="swimlane;fontStyle=1;align=center;verticalAlign=top;childLayout=stackLayout;horizontal=1;startSize=40;horizontalStack=0;resizeParent=1;resizeParentMax=0;resizeLast=0;collapsible=1;marginBottom=0;whiteSpace=wrap;html=1;" parent="1" vertex="1">
          <mxGeometry x="490" y="940" width="300" height="200" as="geometry" />
        </mxCell>
        <mxCell id="I8XCcLXyzaf88g92L11y-2" value="- GameStateControl&amp;amp;&lt;br&gt;- GameData&amp;amp;&lt;br&gt;- SoundControl&amp;amp;&lt;br&gt;" style="text;strokeColor=none;fillColor=none;align=left;verticalAlign=top;spacingLeft=4;spacingRight=4;overflow=hidden;rotatable=0;points=[[0,0.5],[1,0.5]];portConstraint=eastwest;whiteSpace=wrap;html=1;" parent="I8XCcLXyzaf88g92L11y-1" vertex="1">
          <mxGeometry y="40" width="300" height="60" as="geometry" />
        </mxCell>
        <mxCell id="I8XCcLXyzaf88g92L11y-3" value="" style="line;strokeWidth=1;fillColor=none;align=left;verticalAlign=middle;spacingTop=-1;spacingLeft=3;spacingRight=3;rotatable=0;labelPosition=right;points=[];portConstraint=eastwest;strokeColor=inherit;" parent="I8XCcLXyzaf88g92L11y-1" vertex="1">
          <mxGeometry y="100" width="300" height="8" as="geometry" />
        </mxCell>
        <mxCell id="I8XCcLXyzaf88g92L11y-4" value="+ void hitReceived(damage, playerNum, teamNum)&lt;br&gt;+ void hitReceived(ShootMessage_t)&lt;br&gt;+ void init()&lt;br&gt;+ void disable()" style="text;strokeColor=none;fillColor=none;align=left;verticalAlign=top;spacingLeft=4;spacingRight=4;overflow=hidden;rotatable=0;points=[[0,0.5],[1,0.5]];portConstraint=eastwest;whiteSpace=wrap;html=1;" parent="I8XCcLXyzaf88g92L11y-1" vertex="1">
          <mxGeometry y="108" width="300" height="92" as="geometry" />
        </mxCell>
        <mxCell id="I8XCcLXyzaf88g92L11y-21" style="edgeStyle=orthogonalEdgeStyle;rounded=0;orthogonalLoop=1;jettySize=auto;html=1;" parent="1" source="I8XCcLXyzaf88g92L11y-5" target="I8XCcLXyzaf88g92L11y-17" edge="1">
          <mxGeometry relative="1" as="geometry" />
        </mxCell>
        <mxCell id="I8XCcLXyzaf88g92L11y-25" style="edgeStyle=orthogonalEdgeStyle;rounded=0;orthogonalLoop=1;jettySize=auto;html=1;" parent="1" source="I8XCcLXyzaf88g92L11y-5" target="T9fNchp1gU0LkEgGzQ4X-22" edge="1">
          <mxGeometry relative="1" as="geometry">
            <Array as="points">
              <mxPoint x="510" y="340" />
              <mxPoint x="510" y="340" />
            </Array>
            <mxPoint x="630" y="370.0588235294117" as="targetPoint" />
          </mxGeometry>
        </mxCell>
        <mxCell id="I8XCcLXyzaf88g92L11y-5" value="&lt;span style=&quot;font-weight: normal;&quot;&gt;&amp;lt;&amp;lt;control&amp;gt;&amp;gt;&lt;br style=&quot;border-color: var(--border-color);&quot;&gt;ReadyUpControl&lt;/span&gt;" style="swimlane;fontStyle=1;align=center;verticalAlign=top;childLayout=stackLayout;horizontal=1;startSize=40;horizontalStack=0;resizeParent=1;resizeParentMax=0;resizeLast=0;collapsible=1;marginBottom=0;whiteSpace=wrap;html=1;" parent="1" vertex="1">
          <mxGeometry x="275" y="280" width="160" height="180" as="geometry" />
        </mxCell>
        <mxCell id="I8XCcLXyzaf88g92L11y-6" value="- GameData&amp;amp;&lt;br&gt;- ConnectControl&amp;amp;&lt;br&gt;- displayControl&amp;amp;&lt;br&gt;- RGBLED&amp;amp;" style="text;strokeColor=none;fillColor=none;align=left;verticalAlign=top;spacingLeft=4;spacingRight=4;overflow=hidden;rotatable=0;points=[[0,0.5],[1,0.5]];portConstraint=eastwest;whiteSpace=wrap;html=1;" parent="I8XCcLXyzaf88g92L11y-5" vertex="1">
          <mxGeometry y="40" width="160" height="70" as="geometry" />
        </mxCell>
        <mxCell id="I8XCcLXyzaf88g92L11y-7" value="" style="line;strokeWidth=1;fillColor=none;align=left;verticalAlign=middle;spacingTop=-1;spacingLeft=3;spacingRight=3;rotatable=0;labelPosition=right;points=[];portConstraint=eastwest;strokeColor=inherit;" parent="I8XCcLXyzaf88g92L11y-5" vertex="1">
          <mxGeometry y="110" width="160" height="8" as="geometry" />
        </mxCell>
        <mxCell id="I8XCcLXyzaf88g92L11y-8" value="+ void start()&lt;br&gt;+ void startGame()&lt;br&gt;+ void buttonPressed()" style="text;strokeColor=none;fillColor=none;align=left;verticalAlign=top;spacingLeft=4;spacingRight=4;overflow=hidden;rotatable=0;points=[[0,0.5],[1,0.5]];portConstraint=eastwest;whiteSpace=wrap;html=1;" parent="I8XCcLXyzaf88g92L11y-5" vertex="1">
          <mxGeometry y="118" width="160" height="62" as="geometry" />
        </mxCell>
        <mxCell id="I8XCcLXyzaf88g92L11y-31" style="edgeStyle=orthogonalEdgeStyle;rounded=0;orthogonalLoop=1;jettySize=auto;html=1;" parent="1" source="I8XCcLXyzaf88g92L11y-9" target="T9fNchp1gU0LkEgGzQ4X-1" edge="1">
          <mxGeometry relative="1" as="geometry">
            <mxPoint x="880" y="835" as="targetPoint" />
          </mxGeometry>
        </mxCell>
        <mxCell id="I8XCcLXyzaf88g92L11y-53" style="edgeStyle=orthogonalEdgeStyle;rounded=0;orthogonalLoop=1;jettySize=auto;html=1;jumpStyle=arc;jumpSize=10;" parent="1" source="I8XCcLXyzaf88g92L11y-9" edge="1">
          <mxGeometry relative="1" as="geometry">
            <Array as="points">
              <mxPoint x="850" y="850" />
              <mxPoint x="850" y="1110" />
            </Array>
            <mxPoint x="880" y="1110" as="targetPoint" />
          </mxGeometry>
        </mxCell>
        <mxCell id="T9fNchp1gU0LkEgGzQ4X-45" style="edgeStyle=orthogonalEdgeStyle;rounded=0;orthogonalLoop=1;jettySize=auto;html=1;" edge="1" parent="1" source="I8XCcLXyzaf88g92L11y-9" target="T9fNchp1gU0LkEgGzQ4X-42">
          <mxGeometry relative="1" as="geometry">
            <Array as="points">
              <mxPoint x="760" y="800" />
              <mxPoint x="760" y="700" />
            </Array>
          </mxGeometry>
        </mxCell>
        <mxCell id="I8XCcLXyzaf88g92L11y-9" value="&lt;span style=&quot;font-weight: normal;&quot;&gt;&amp;lt;&amp;lt;control&amp;gt;&amp;gt;&lt;br&gt;ShootingControl&lt;br&gt;&lt;/span&gt;" style="swimlane;fontStyle=1;align=center;verticalAlign=top;childLayout=stackLayout;horizontal=1;startSize=40;horizontalStack=0;resizeParent=1;resizeParentMax=0;resizeLast=0;collapsible=1;marginBottom=0;whiteSpace=wrap;html=1;" parent="1" vertex="1">
          <mxGeometry x="570" y="750" width="160" height="170" as="geometry" />
        </mxCell>
        <mxCell id="I8XCcLXyzaf88g92L11y-10" value="- MessageSender&amp;amp;&lt;br&gt;- GameStateControl&amp;amp;&lt;br&gt;- SoundControl&amp;amp;" style="text;strokeColor=none;fillColor=none;align=left;verticalAlign=top;spacingLeft=4;spacingRight=4;overflow=hidden;rotatable=0;points=[[0,0.5],[1,0.5]];portConstraint=eastwest;whiteSpace=wrap;html=1;" parent="I8XCcLXyzaf88g92L11y-9" vertex="1">
          <mxGeometry y="40" width="160" height="60" as="geometry" />
        </mxCell>
        <mxCell id="I8XCcLXyzaf88g92L11y-11" value="" style="line;strokeWidth=1;fillColor=none;align=left;verticalAlign=middle;spacingTop=-1;spacingLeft=3;spacingRight=3;rotatable=0;labelPosition=right;points=[];portConstraint=eastwest;strokeColor=inherit;" parent="I8XCcLXyzaf88g92L11y-9" vertex="1">
          <mxGeometry y="100" width="160" height="8" as="geometry" />
        </mxCell>
        <mxCell id="I8XCcLXyzaf88g92L11y-12" value="+ void init(ammo)&lt;br&gt;+ void buttonPressed(ID)&lt;br&gt;+ void disable()" style="text;strokeColor=none;fillColor=none;align=left;verticalAlign=top;spacingLeft=4;spacingRight=4;overflow=hidden;rotatable=0;points=[[0,0.5],[1,0.5]];portConstraint=eastwest;whiteSpace=wrap;html=1;" parent="I8XCcLXyzaf88g92L11y-9" vertex="1">
          <mxGeometry y="108" width="160" height="62" as="geometry" />
        </mxCell>
        <mxCell id="I8XCcLXyzaf88g92L11y-28" style="edgeStyle=orthogonalEdgeStyle;rounded=0;orthogonalLoop=1;jettySize=auto;html=1;" parent="1" source="I8XCcLXyzaf88g92L11y-17" target="I8XCcLXyzaf88g92L11y-26" edge="1">
          <mxGeometry relative="1" as="geometry">
            <Array as="points">
              <mxPoint x="130" y="630" />
            </Array>
          </mxGeometry>
        </mxCell>
        <mxCell id="I8XCcLXyzaf88g92L11y-34" style="edgeStyle=orthogonalEdgeStyle;rounded=0;orthogonalLoop=1;jettySize=auto;html=1;" parent="1" source="I8XCcLXyzaf88g92L11y-17" target="I8XCcLXyzaf88g92L11y-9" edge="1">
          <mxGeometry relative="1" as="geometry">
            <Array as="points">
              <mxPoint x="650" y="650" />
            </Array>
          </mxGeometry>
        </mxCell>
        <mxCell id="I8XCcLXyzaf88g92L11y-35" style="edgeStyle=orthogonalEdgeStyle;rounded=0;orthogonalLoop=1;jettySize=auto;html=1;" parent="1" source="I8XCcLXyzaf88g92L11y-17" target="I8XCcLXyzaf88g92L11y-1" edge="1">
          <mxGeometry relative="1" as="geometry">
            <Array as="points">
              <mxPoint x="520" y="700" />
            </Array>
          </mxGeometry>
        </mxCell>
        <mxCell id="I8XCcLXyzaf88g92L11y-40" style="edgeStyle=orthogonalEdgeStyle;rounded=0;orthogonalLoop=1;jettySize=auto;html=1;" parent="1" source="I8XCcLXyzaf88g92L11y-17" edge="1">
          <mxGeometry relative="1" as="geometry">
            <Array as="points">
              <mxPoint x="640" y="610" />
              <mxPoint x="640" y="450" />
            </Array>
            <mxPoint x="880" y="450" as="targetPoint" />
          </mxGeometry>
        </mxCell>
        <mxCell id="I8XCcLXyzaf88g92L11y-45" style="edgeStyle=orthogonalEdgeStyle;rounded=0;orthogonalLoop=1;jettySize=auto;html=1;jumpSize=10;jumpStyle=arc;" parent="1" source="I8XCcLXyzaf88g92L11y-17" target="T9fNchp1gU0LkEgGzQ4X-18" edge="1">
          <mxGeometry relative="1" as="geometry">
            <mxPoint x="355" y="1170" as="targetPoint" />
          </mxGeometry>
        </mxCell>
        <mxCell id="T9fNchp1gU0LkEgGzQ4X-27" style="edgeStyle=orthogonalEdgeStyle;rounded=0;orthogonalLoop=1;jettySize=auto;html=1;" edge="1" parent="1" source="T9fNchp1gU0LkEgGzQ4X-36" target="T9fNchp1gU0LkEgGzQ4X-22">
          <mxGeometry relative="1" as="geometry">
            <Array as="points">
              <mxPoint x="570" y="90" />
            </Array>
          </mxGeometry>
        </mxCell>
        <mxCell id="I8XCcLXyzaf88g92L11y-17" value="&lt;span style=&quot;font-weight: normal;&quot;&gt;&amp;lt;&amp;lt;control&amp;gt;&amp;gt;&lt;br&gt;GameStateControl&lt;br&gt;&lt;/span&gt;" style="swimlane;fontStyle=1;align=center;verticalAlign=top;childLayout=stackLayout;horizontal=1;startSize=40;horizontalStack=0;resizeParent=1;resizeParentMax=0;resizeLast=0;collapsible=1;marginBottom=0;whiteSpace=wrap;html=1;" parent="1" vertex="1">
          <mxGeometry x="275" y="530" width="160" height="200" as="geometry" />
        </mxCell>
        <mxCell id="I8XCcLXyzaf88g92L11y-18" value="- DisplayControl&amp;amp;&lt;br&gt;- GameData&amp;amp;&lt;br&gt;- ShootingControl&amp;amp;&lt;br&gt;- ReceivingHitControl&amp;amp;&lt;br&gt;- GameOverControl&amp;amp;" style="text;strokeColor=none;fillColor=none;align=left;verticalAlign=top;spacingLeft=4;spacingRight=4;overflow=hidden;rotatable=0;points=[[0,0.5],[1,0.5]];portConstraint=eastwest;whiteSpace=wrap;html=1;" parent="I8XCcLXyzaf88g92L11y-17" vertex="1">
          <mxGeometry y="40" width="160" height="90" as="geometry" />
        </mxCell>
        <mxCell id="I8XCcLXyzaf88g92L11y-19" value="" style="line;strokeWidth=1;fillColor=none;align=left;verticalAlign=middle;spacingTop=-1;spacingLeft=3;spacingRight=3;rotatable=0;labelPosition=right;points=[];portConstraint=eastwest;strokeColor=inherit;" parent="I8XCcLXyzaf88g92L11y-17" vertex="1">
          <mxGeometry y="130" width="160" height="8" as="geometry" />
        </mxCell>
        <mxCell id="I8XCcLXyzaf88g92L11y-20" value="+ void start()&lt;br&gt;+ void setShotsTaken(int)&lt;br&gt;+ void decrementHealth(int)" style="text;strokeColor=none;fillColor=none;align=left;verticalAlign=top;spacingLeft=4;spacingRight=4;overflow=hidden;rotatable=0;points=[[0,0.5],[1,0.5]];portConstraint=eastwest;whiteSpace=wrap;html=1;" parent="I8XCcLXyzaf88g92L11y-17" vertex="1">
          <mxGeometry y="138" width="160" height="62" as="geometry" />
        </mxCell>
        <mxCell id="I8XCcLXyzaf88g92L11y-24" style="edgeStyle=orthogonalEdgeStyle;rounded=0;orthogonalLoop=1;jettySize=auto;html=1;" parent="1" source="T9fNchp1gU0LkEgGzQ4X-22" target="I8XCcLXyzaf88g92L11y-5" edge="1">
          <mxGeometry relative="1" as="geometry">
            <Array as="points">
              <mxPoint x="510" y="320" />
              <mxPoint x="510" y="320" />
            </Array>
            <mxPoint x="630" y="350.0588235294117" as="sourcePoint" />
          </mxGeometry>
        </mxCell>
        <mxCell id="I8XCcLXyzaf88g92L11y-26" value="&amp;lt;&amp;lt;entity&amp;gt;&amp;gt;&lt;br&gt;GameData" style="rounded=0;whiteSpace=wrap;html=1;" parent="1" vertex="1">
          <mxGeometry x="30" y="325" width="120" height="60" as="geometry" />
        </mxCell>
        <mxCell id="I8XCcLXyzaf88g92L11y-27" style="edgeStyle=orthogonalEdgeStyle;rounded=0;orthogonalLoop=1;jettySize=auto;html=1;" parent="1" source="I8XCcLXyzaf88g92L11y-6" target="I8XCcLXyzaf88g92L11y-26" edge="1">
          <mxGeometry relative="1" as="geometry" />
        </mxCell>
        <mxCell id="I8XCcLXyzaf88g92L11y-44" style="edgeStyle=orthogonalEdgeStyle;rounded=0;orthogonalLoop=1;jettySize=auto;html=1;jumpStyle=arc;jumpSize=10;" parent="1" source="T9fNchp1gU0LkEgGzQ4X-18" target="I8XCcLXyzaf88g92L11y-9" edge="1">
          <mxGeometry relative="1" as="geometry">
            <Array as="points">
              <mxPoint x="830" y="1210" />
              <mxPoint x="830" y="900" />
            </Array>
            <mxPoint x="415" y="1200.0000000000005" as="sourcePoint" />
          </mxGeometry>
        </mxCell>
        <mxCell id="I8XCcLXyzaf88g92L11y-43" style="edgeStyle=orthogonalEdgeStyle;rounded=0;orthogonalLoop=1;jettySize=auto;html=1;" parent="1" source="T9fNchp1gU0LkEgGzQ4X-18" target="I8XCcLXyzaf88g92L11y-1" edge="1">
          <mxGeometry relative="1" as="geometry">
            <Array as="points">
              <mxPoint x="640" y="1190" />
            </Array>
            <mxPoint x="415" y="1190.0000000000005" as="sourcePoint" />
          </mxGeometry>
        </mxCell>
        <mxCell id="I8XCcLXyzaf88g92L11y-48" style="edgeStyle=orthogonalEdgeStyle;rounded=0;orthogonalLoop=1;jettySize=auto;html=1;" parent="1" source="I8XCcLXyzaf88g92L11y-46" target="I8XCcLXyzaf88g92L11y-9" edge="1">
          <mxGeometry relative="1" as="geometry">
            <Array as="points">
              <mxPoint x="710" y="600" />
            </Array>
          </mxGeometry>
        </mxCell>
        <mxCell id="I8XCcLXyzaf88g92L11y-50" style="edgeStyle=orthogonalEdgeStyle;rounded=0;orthogonalLoop=1;jettySize=auto;html=1;jumpStyle=arc;jumpSize=10;" parent="1" source="I8XCcLXyzaf88g92L11y-46" target="I8XCcLXyzaf88g92L11y-5" edge="1">
          <mxGeometry relative="1" as="geometry">
            <Array as="points">
              <mxPoint x="830" y="600" />
              <mxPoint x="830" y="510" />
              <mxPoint x="410" y="510" />
            </Array>
          </mxGeometry>
        </mxCell>
        <mxCell id="I8XCcLXyzaf88g92L11y-46" value="TriggerButton" style="rounded=0;whiteSpace=wrap;html=1;" parent="1" vertex="1">
          <mxGeometry x="910" y="560" width="120" height="60" as="geometry" />
        </mxCell>
        <mxCell id="I8XCcLXyzaf88g92L11y-49" style="edgeStyle=orthogonalEdgeStyle;rounded=0;orthogonalLoop=1;jettySize=auto;html=1;" parent="1" source="I8XCcLXyzaf88g92L11y-47" target="I8XCcLXyzaf88g92L11y-9" edge="1">
          <mxGeometry relative="1" as="geometry">
            <Array as="points">
              <mxPoint x="720" y="670" />
            </Array>
          </mxGeometry>
        </mxCell>
        <mxCell id="I8XCcLXyzaf88g92L11y-51" style="edgeStyle=orthogonalEdgeStyle;rounded=0;orthogonalLoop=1;jettySize=auto;html=1;jumpStyle=arc;jumpSize=10;" parent="1" source="I8XCcLXyzaf88g92L11y-47" target="I8XCcLXyzaf88g92L11y-5" edge="1">
          <mxGeometry relative="1" as="geometry">
            <Array as="points">
              <mxPoint x="850" y="670" />
              <mxPoint x="850" y="490" />
              <mxPoint x="430" y="490" />
            </Array>
          </mxGeometry>
        </mxCell>
        <mxCell id="I8XCcLXyzaf88g92L11y-47" value="ReloadButton" style="rounded=0;whiteSpace=wrap;html=1;" parent="1" vertex="1">
          <mxGeometry x="1050" y="625" width="120" height="60" as="geometry" />
        </mxCell>
        <mxCell id="O7OziRTvPOIsfuu7PIjR-1" value="&lt;p style=&quot;margin:0px;margin-top:4px;text-align:center;&quot;&gt;&amp;lt;&amp;lt;control&amp;gt;&amp;gt;&lt;/p&gt;&lt;p style=&quot;margin:0px;margin-top:4px;text-align:center;&quot;&gt;SpeakerControl&lt;/p&gt;&lt;hr size=&quot;1&quot;&gt;&lt;p style=&quot;margin:0px;margin-left:4px;&quot;&gt;&lt;br&gt;&lt;/p&gt;&lt;hr size=&quot;1&quot;&gt;&lt;p style=&quot;margin:0px;margin-left:4px;&quot;&gt;+ gameOverSet()&lt;/p&gt;&lt;p style=&quot;margin:0px;margin-left:4px;&quot;&gt;+ startUpSet()&lt;/p&gt;&lt;p style=&quot;margin:0px;margin-left:4px;&quot;&gt;+ gunShotSet()&lt;/p&gt;&lt;p style=&quot;margin:0px;margin-left:4px;&quot;&gt;+ hitSet()&lt;/p&gt;" style="verticalAlign=top;align=left;overflow=fill;fontSize=12;fontFamily=Helvetica;html=1;whiteSpace=wrap;" parent="1" vertex="1">
          <mxGeometry x="880" y="1080" width="160" height="140" as="geometry" />
        </mxCell>
        <mxCell id="O7OziRTvPOIsfuu7PIjR-2" value="&lt;p style=&quot;margin:0px;margin-top:4px;text-align:center;&quot;&gt;&amp;lt;&amp;lt;control&amp;gt;&amp;gt;&lt;/p&gt;&lt;p style=&quot;margin:0px;margin-top:4px;text-align:center;&quot;&gt;DisplayControl&lt;/p&gt;&lt;hr size=&quot;1&quot;&gt;&lt;p style=&quot;margin:0px;margin-left:4px;&quot;&gt;- int bulletCount&lt;/p&gt;&lt;p style=&quot;margin:0px;margin-left:4px;&quot;&gt;- int lives&lt;/p&gt;&lt;p style=&quot;margin:0px;margin-left:4px;&quot;&gt;- int timer&lt;/p&gt;&lt;hr size=&quot;1&quot;&gt;&lt;p style=&quot;margin:0px;margin-left:4px;&quot;&gt;+ setBulletCount()&lt;/p&gt;&lt;p style=&quot;margin:0px;margin-left:4px;&quot;&gt;+ setLives()&lt;/p&gt;&lt;p style=&quot;margin:0px;margin-left:4px;&quot;&gt;+ setTimer()&lt;/p&gt;&lt;p style=&quot;margin:0px;margin-left:4px;&quot;&gt;+ drawDisplaySet()&lt;/p&gt;&lt;p style=&quot;margin:0px;margin-left:4px;&quot;&gt;+ startUpSet()&lt;/p&gt;&lt;p style=&quot;margin:0px;margin-left:4px;&quot;&gt;+ gameOverSet()&lt;/p&gt;" style="verticalAlign=top;align=left;overflow=fill;fontSize=12;fontFamily=Helvetica;html=1;whiteSpace=wrap;" parent="1" vertex="1">
          <mxGeometry x="880" y="330" width="160" height="200" as="geometry" />
        </mxCell>
        <mxCell id="T9fNchp1gU0LkEgGzQ4X-1" value="&amp;lt;&amp;lt;boundary&amp;gt;&amp;gt;&lt;br&gt;MessageSender" style="swimlane;fontStyle=1;align=center;verticalAlign=top;childLayout=stackLayout;horizontal=1;startSize=40;horizontalStack=0;resizeParent=1;resizeParentMax=0;resizeLast=0;collapsible=1;marginBottom=0;whiteSpace=wrap;html=1;" vertex="1" parent="1">
          <mxGeometry x="890" y="713" width="160" height="244" as="geometry" />
        </mxCell>
        <mxCell id="T9fNchp1gU0LkEgGzQ4X-2" value="- startMessage():void&lt;br&gt;- sendZero():void&lt;br&gt;- sendOne():void&lt;br&gt;- endMessage():void&lt;br&gt;- sendRepeat():void" style="text;strokeColor=none;fillColor=none;align=left;verticalAlign=top;spacingLeft=4;spacingRight=4;overflow=hidden;rotatable=0;points=[[0,0.5],[1,0.5]];portConstraint=eastwest;whiteSpace=wrap;html=1;" vertex="1" parent="T9fNchp1gU0LkEgGzQ4X-1">
          <mxGeometry y="40" width="160" height="90" as="geometry" />
        </mxCell>
        <mxCell id="T9fNchp1gU0LkEgGzQ4X-3" value="" style="line;strokeWidth=1;fillColor=none;align=left;verticalAlign=middle;spacingTop=-1;spacingLeft=3;spacingRight=3;rotatable=0;labelPosition=right;points=[];portConstraint=eastwest;strokeColor=inherit;" vertex="1" parent="T9fNchp1gU0LkEgGzQ4X-1">
          <mxGeometry y="130" width="160" height="8" as="geometry" />
        </mxCell>
        <mxCell id="T9fNchp1gU0LkEgGzQ4X-4" value="+ sendMessage(int32):void&lt;br style=&quot;border-color: var(--border-color);&quot;&gt;+ sendMessage(int8, int8, int8, int8):void&lt;br style=&quot;border-color: var(--border-color);&quot;&gt;+ sendShoot(playerNum, teamNum, weaponType/damage):void" style="text;strokeColor=none;fillColor=none;align=left;verticalAlign=top;spacingLeft=4;spacingRight=4;overflow=hidden;rotatable=0;points=[[0,0.5],[1,0.5]];portConstraint=eastwest;whiteSpace=wrap;html=1;" vertex="1" parent="T9fNchp1gU0LkEgGzQ4X-1">
          <mxGeometry y="138" width="160" height="106" as="geometry" />
        </mxCell>
        <mxCell id="T9fNchp1gU0LkEgGzQ4X-43" style="edgeStyle=orthogonalEdgeStyle;rounded=0;orthogonalLoop=1;jettySize=auto;html=1;" edge="1" parent="1" source="T9fNchp1gU0LkEgGzQ4X-5" target="T9fNchp1gU0LkEgGzQ4X-42">
          <mxGeometry relative="1" as="geometry">
            <Array as="points">
              <mxPoint x="1170" y="780" />
              <mxPoint x="1390" y="780" />
            </Array>
          </mxGeometry>
        </mxCell>
        <mxCell id="T9fNchp1gU0LkEgGzQ4X-5" value="&amp;lt;&amp;lt;boundary&amp;gt;&amp;gt;&lt;br&gt;MessageReceiver" style="swimlane;fontStyle=1;align=center;verticalAlign=top;childLayout=stackLayout;horizontal=1;startSize=40;horizontalStack=0;resizeParent=1;resizeParentMax=0;resizeLast=0;collapsible=1;marginBottom=0;whiteSpace=wrap;html=1;" vertex="1" parent="1">
          <mxGeometry x="1090" y="975" width="160" height="120" as="geometry" />
        </mxCell>
        <mxCell id="T9fNchp1gU0LkEgGzQ4X-6" value="- messageChannel" style="text;strokeColor=none;fillColor=none;align=left;verticalAlign=top;spacingLeft=4;spacingRight=4;overflow=hidden;rotatable=0;points=[[0,0.5],[1,0.5]];portConstraint=eastwest;whiteSpace=wrap;html=1;" vertex="1" parent="T9fNchp1gU0LkEgGzQ4X-5">
          <mxGeometry y="40" width="160" height="30" as="geometry" />
        </mxCell>
        <mxCell id="T9fNchp1gU0LkEgGzQ4X-7" value="" style="line;strokeWidth=1;fillColor=none;align=left;verticalAlign=middle;spacingTop=-1;spacingLeft=3;spacingRight=3;rotatable=0;labelPosition=right;points=[];portConstraint=eastwest;strokeColor=inherit;" vertex="1" parent="T9fNchp1gU0LkEgGzQ4X-5">
          <mxGeometry y="70" width="160" height="8" as="geometry" />
        </mxCell>
        <mxCell id="T9fNchp1gU0LkEgGzQ4X-8" value="+ messageReceived(int64, nofBytes)" style="text;strokeColor=none;fillColor=none;align=left;verticalAlign=top;spacingLeft=4;spacingRight=4;overflow=hidden;rotatable=0;points=[[0,0.5],[1,0.5]];portConstraint=eastwest;whiteSpace=wrap;html=1;" vertex="1" parent="T9fNchp1gU0LkEgGzQ4X-5">
          <mxGeometry y="78" width="160" height="42" as="geometry" />
        </mxCell>
        <mxCell id="T9fNchp1gU0LkEgGzQ4X-9" value="&amp;lt;&amp;lt;boundary&amp;gt;&amp;gt;&lt;br&gt;NecReceiver" style="swimlane;fontStyle=1;align=center;verticalAlign=top;childLayout=stackLayout;horizontal=1;startSize=40;horizontalStack=0;resizeParent=1;resizeParentMax=0;resizeLast=0;collapsible=1;marginBottom=0;whiteSpace=wrap;html=1;" vertex="1" parent="1">
          <mxGeometry x="1310" y="950" width="160" height="180" as="geometry" />
        </mxCell>
        <mxCell id="T9fNchp1gU0LkEgGzQ4X-10" value="- MessageReceiver&amp;amp;&lt;br&gt;- signalChannel&lt;br&gt;- pauseChannel&lt;br&gt;- n : int64&lt;br&gt;- m : int64" style="text;strokeColor=none;fillColor=none;align=left;verticalAlign=top;spacingLeft=4;spacingRight=4;overflow=hidden;rotatable=0;points=[[0,0.5],[1,0.5]];portConstraint=eastwest;whiteSpace=wrap;html=1;" vertex="1" parent="T9fNchp1gU0LkEgGzQ4X-9">
          <mxGeometry y="40" width="160" height="90" as="geometry" />
        </mxCell>
        <mxCell id="T9fNchp1gU0LkEgGzQ4X-11" value="" style="line;strokeWidth=1;fillColor=none;align=left;verticalAlign=middle;spacingTop=-1;spacingLeft=3;spacingRight=3;rotatable=0;labelPosition=right;points=[];portConstraint=eastwest;strokeColor=inherit;" vertex="1" parent="T9fNchp1gU0LkEgGzQ4X-9">
          <mxGeometry y="130" width="160" height="8" as="geometry" />
        </mxCell>
        <mxCell id="T9fNchp1gU0LkEgGzQ4X-12" value="+ signalDetected(time)&lt;br&gt;+ pauseDetected(time)" style="text;strokeColor=none;fillColor=none;align=left;verticalAlign=top;spacingLeft=4;spacingRight=4;overflow=hidden;rotatable=0;points=[[0,0.5],[1,0.5]];portConstraint=eastwest;whiteSpace=wrap;html=1;" vertex="1" parent="T9fNchp1gU0LkEgGzQ4X-9">
          <mxGeometry y="138" width="160" height="42" as="geometry" />
        </mxCell>
        <mxCell id="T9fNchp1gU0LkEgGzQ4X-13" style="edgeStyle=orthogonalEdgeStyle;rounded=0;orthogonalLoop=1;jettySize=auto;html=1;" edge="1" parent="1" source="T9fNchp1gU0LkEgGzQ4X-14" target="T9fNchp1gU0LkEgGzQ4X-9">
          <mxGeometry relative="1" as="geometry" />
        </mxCell>
        <mxCell id="T9fNchp1gU0LkEgGzQ4X-14" value="&amp;lt;&amp;lt;boundary&amp;gt;&amp;gt;&lt;br&gt;SignalPauseDetector" style="swimlane;fontStyle=1;align=center;verticalAlign=top;childLayout=stackLayout;horizontal=1;startSize=40;horizontalStack=0;resizeParent=1;resizeParentMax=0;resizeLast=0;collapsible=1;marginBottom=0;whiteSpace=wrap;html=1;" vertex="1" parent="1">
          <mxGeometry x="1550" y="986" width="160" height="108" as="geometry" />
        </mxCell>
        <mxCell id="T9fNchp1gU0LkEgGzQ4X-15" value="- NecReceiver&amp;amp;&lt;br&gt;- sleepTimer : Timer&lt;br&gt;- tsopReceiverPin int8" style="text;strokeColor=none;fillColor=none;align=left;verticalAlign=top;spacingLeft=4;spacingRight=4;overflow=hidden;rotatable=0;points=[[0,0.5],[1,0.5]];portConstraint=eastwest;whiteSpace=wrap;html=1;" vertex="1" parent="T9fNchp1gU0LkEgGzQ4X-14">
          <mxGeometry y="40" width="160" height="60" as="geometry" />
        </mxCell>
        <mxCell id="T9fNchp1gU0LkEgGzQ4X-16" value="" style="line;strokeWidth=1;fillColor=none;align=left;verticalAlign=middle;spacingTop=-1;spacingLeft=3;spacingRight=3;rotatable=0;labelPosition=right;points=[];portConstraint=eastwest;strokeColor=inherit;" vertex="1" parent="T9fNchp1gU0LkEgGzQ4X-14">
          <mxGeometry y="100" width="160" height="8" as="geometry" />
        </mxCell>
        <mxCell id="T9fNchp1gU0LkEgGzQ4X-17" style="edgeStyle=orthogonalEdgeStyle;rounded=0;orthogonalLoop=1;jettySize=auto;html=1;" edge="1" parent="1" source="T9fNchp1gU0LkEgGzQ4X-10" target="T9fNchp1gU0LkEgGzQ4X-5">
          <mxGeometry relative="1" as="geometry" />
        </mxCell>
        <mxCell id="T9fNchp1gU0LkEgGzQ4X-33" style="edgeStyle=orthogonalEdgeStyle;rounded=0;orthogonalLoop=1;jettySize=auto;html=1;" edge="1" parent="1" source="T9fNchp1gU0LkEgGzQ4X-18" target="T9fNchp1gU0LkEgGzQ4X-29">
          <mxGeometry relative="1" as="geometry">
            <Array as="points">
              <mxPoint x="290" y="1110" />
            </Array>
          </mxGeometry>
        </mxCell>
        <mxCell id="T9fNchp1gU0LkEgGzQ4X-18" value="&lt;span style=&quot;font-weight: normal;&quot;&gt;&amp;lt;&amp;lt;control&amp;gt;&amp;gt;&lt;br&gt;GameOverControl&lt;br&gt;&lt;/span&gt;" style="swimlane;fontStyle=1;align=center;verticalAlign=top;childLayout=stackLayout;horizontal=1;startSize=40;horizontalStack=0;resizeParent=1;resizeParentMax=0;resizeLast=0;collapsible=1;marginBottom=0;whiteSpace=wrap;html=1;" vertex="1" parent="1">
          <mxGeometry x="255" y="1180" width="200" height="220" as="geometry" />
        </mxCell>
        <mxCell id="T9fNchp1gU0LkEgGzQ4X-19" value="- GameData_t&amp;amp;&lt;br&gt;- SpeakerControl&amp;amp;&lt;br&gt;- ReceivingHitControl&amp;amp;&lt;br&gt;- ShootingControl&amp;amp;&lt;br&gt;- DisplayControl&amp;amp;&lt;br&gt;- SendPostGameDataControl&amp;amp;&lt;br&gt;- ConnectControl&amp;amp;&lt;br&gt;- GameStateControl&amp;amp;" style="text;strokeColor=none;fillColor=none;align=left;verticalAlign=top;spacingLeft=4;spacingRight=4;overflow=hidden;rotatable=0;points=[[0,0.5],[1,0.5]];portConstraint=eastwest;whiteSpace=wrap;html=1;" vertex="1" parent="T9fNchp1gU0LkEgGzQ4X-18">
          <mxGeometry y="40" width="200" height="130" as="geometry" />
        </mxCell>
        <mxCell id="T9fNchp1gU0LkEgGzQ4X-20" value="" style="line;strokeWidth=1;fillColor=none;align=left;verticalAlign=middle;spacingTop=-1;spacingLeft=3;spacingRight=3;rotatable=0;labelPosition=right;points=[];portConstraint=eastwest;strokeColor=inherit;" vertex="1" parent="T9fNchp1gU0LkEgGzQ4X-18">
          <mxGeometry y="170" width="200" height="8" as="geometry" />
        </mxCell>
        <mxCell id="T9fNchp1gU0LkEgGzQ4X-21" value="+ void _start()&lt;br&gt;+ void forceGameOver()" style="text;strokeColor=none;fillColor=none;align=left;verticalAlign=top;spacingLeft=4;spacingRight=4;overflow=hidden;rotatable=0;points=[[0,0.5],[1,0.5]];portConstraint=eastwest;whiteSpace=wrap;html=1;" vertex="1" parent="T9fNchp1gU0LkEgGzQ4X-18">
          <mxGeometry y="178" width="200" height="42" as="geometry" />
        </mxCell>
        <mxCell id="T9fNchp1gU0LkEgGzQ4X-22" value="&lt;span style=&quot;font-weight: normal;&quot;&gt;&amp;lt;&amp;lt;control&amp;gt;&amp;gt;&lt;br&gt;ConnectControl&lt;br&gt;&lt;/span&gt;" style="swimlane;fontStyle=1;align=center;verticalAlign=top;childLayout=stackLayout;horizontal=1;startSize=40;horizontalStack=0;resizeParent=1;resizeParentMax=0;resizeLast=0;collapsible=1;marginBottom=0;whiteSpace=wrap;html=1;" vertex="1" parent="1">
          <mxGeometry x="550" y="150" width="160" height="230" as="geometry" />
        </mxCell>
        <mxCell id="T9fNchp1gU0LkEgGzQ4X-23" value="-&amp;nbsp;GameSetupControl&amp;amp;&amp;nbsp;&lt;div&gt;- ReadyUpControl&amp;amp;&lt;/div&gt;&lt;div&gt;- GameStateControl&amp;amp;&amp;nbsp;&lt;/div&gt;&lt;div&gt;- GameData_t&amp;amp;&lt;/div&gt;&lt;span style=&quot;background-color: initial;&quot;&gt;- HTTP_Client&amp;amp; -&amp;nbsp;&lt;/span&gt;GameSetupControl&amp;amp;&amp;nbsp;" style="text;strokeColor=none;fillColor=none;align=left;verticalAlign=top;spacingLeft=4;spacingRight=4;overflow=hidden;rotatable=0;points=[[0,0.5],[1,0.5]];portConstraint=eastwest;whiteSpace=wrap;html=1;" vertex="1" parent="T9fNchp1gU0LkEgGzQ4X-22">
          <mxGeometry y="40" width="160" height="100" as="geometry" />
        </mxCell>
        <mxCell id="T9fNchp1gU0LkEgGzQ4X-24" value="" style="line;strokeWidth=1;fillColor=none;align=left;verticalAlign=middle;spacingTop=-1;spacingLeft=3;spacingRight=3;rotatable=0;labelPosition=right;points=[];portConstraint=eastwest;strokeColor=inherit;" vertex="1" parent="T9fNchp1gU0LkEgGzQ4X-22">
          <mxGeometry y="140" width="160" height="8" as="geometry" />
        </mxCell>
        <mxCell id="T9fNchp1gU0LkEgGzQ4X-25" value="+ void meldGameOver()&lt;br&gt;+ void getGameData()&lt;br&gt;+ void sendReady()&lt;br&gt;+ startGame()&lt;br&gt;+ connectSucces()" style="text;strokeColor=none;fillColor=none;align=left;verticalAlign=top;spacingLeft=4;spacingRight=4;overflow=hidden;rotatable=0;points=[[0,0.5],[1,0.5]];portConstraint=eastwest;whiteSpace=wrap;html=1;" vertex="1" parent="T9fNchp1gU0LkEgGzQ4X-22">
          <mxGeometry y="148" width="160" height="82" as="geometry" />
        </mxCell>
        <mxCell id="I8XCcLXyzaf88g92L11y-39" style="edgeStyle=orthogonalEdgeStyle;rounded=0;orthogonalLoop=1;jettySize=auto;html=1;jumpStyle=arc;jumpSize=10;" parent="1" source="I8XCcLXyzaf88g92L11y-5" edge="1">
          <mxGeometry relative="1" as="geometry">
            <Array as="points">
              <mxPoint x="840" y="430" />
              <mxPoint x="840" y="430" />
            </Array>
            <mxPoint x="880" y="430" as="targetPoint" />
          </mxGeometry>
        </mxCell>
        <mxCell id="T9fNchp1gU0LkEgGzQ4X-34" style="edgeStyle=orthogonalEdgeStyle;rounded=0;orthogonalLoop=1;jettySize=auto;html=1;" edge="1" parent="1" source="T9fNchp1gU0LkEgGzQ4X-29" target="T9fNchp1gU0LkEgGzQ4X-22">
          <mxGeometry relative="1" as="geometry">
            <Array as="points">
              <mxPoint x="200" y="255" />
            </Array>
          </mxGeometry>
        </mxCell>
        <mxCell id="T9fNchp1gU0LkEgGzQ4X-29" value="&lt;span style=&quot;font-weight: normal;&quot;&gt;&amp;lt;&amp;lt;control&amp;gt;&amp;gt;&lt;br&gt;SendPostGameDataControl&lt;br&gt;&lt;/span&gt;" style="swimlane;fontStyle=1;align=center;verticalAlign=top;childLayout=stackLayout;horizontal=1;startSize=40;horizontalStack=0;resizeParent=1;resizeParentMax=0;resizeLast=0;collapsible=1;marginBottom=0;whiteSpace=wrap;html=1;" vertex="1" parent="1">
          <mxGeometry x="30" y="1095" width="200" height="120" as="geometry" />
        </mxCell>
        <mxCell id="T9fNchp1gU0LkEgGzQ4X-30" value="- GameData_t&amp;amp;&lt;br&gt;- ConnectControl&amp;amp;" style="text;strokeColor=none;fillColor=none;align=left;verticalAlign=top;spacingLeft=4;spacingRight=4;overflow=hidden;rotatable=0;points=[[0,0.5],[1,0.5]];portConstraint=eastwest;whiteSpace=wrap;html=1;" vertex="1" parent="T9fNchp1gU0LkEgGzQ4X-29">
          <mxGeometry y="40" width="200" height="40" as="geometry" />
        </mxCell>
        <mxCell id="T9fNchp1gU0LkEgGzQ4X-31" value="" style="line;strokeWidth=1;fillColor=none;align=left;verticalAlign=middle;spacingTop=-1;spacingLeft=3;spacingRight=3;rotatable=0;labelPosition=right;points=[];portConstraint=eastwest;strokeColor=inherit;" vertex="1" parent="T9fNchp1gU0LkEgGzQ4X-29">
          <mxGeometry y="80" width="200" height="8" as="geometry" />
        </mxCell>
        <mxCell id="T9fNchp1gU0LkEgGzQ4X-32" value="+ void _start()" style="text;strokeColor=none;fillColor=none;align=left;verticalAlign=top;spacingLeft=4;spacingRight=4;overflow=hidden;rotatable=0;points=[[0,0.5],[1,0.5]];portConstraint=eastwest;whiteSpace=wrap;html=1;" vertex="1" parent="T9fNchp1gU0LkEgGzQ4X-29">
          <mxGeometry y="88" width="200" height="32" as="geometry" />
        </mxCell>
        <mxCell id="T9fNchp1gU0LkEgGzQ4X-35" style="edgeStyle=orthogonalEdgeStyle;rounded=0;orthogonalLoop=1;jettySize=auto;html=1;" edge="1" parent="1" source="T9fNchp1gU0LkEgGzQ4X-23" target="I8XCcLXyzaf88g92L11y-26">
          <mxGeometry relative="1" as="geometry" />
        </mxCell>
        <mxCell id="T9fNchp1gU0LkEgGzQ4X-37" style="edgeStyle=orthogonalEdgeStyle;rounded=0;orthogonalLoop=1;jettySize=auto;html=1;jumpSize=10;jumpStyle=arc;" edge="1" parent="1" source="T9fNchp1gU0LkEgGzQ4X-36" target="I8XCcLXyzaf88g92L11y-5">
          <mxGeometry relative="1" as="geometry" />
        </mxCell>
        <mxCell id="T9fNchp1gU0LkEgGzQ4X-38" style="edgeStyle=orthogonalEdgeStyle;rounded=0;orthogonalLoop=1;jettySize=auto;html=1;" edge="1" parent="1" source="T9fNchp1gU0LkEgGzQ4X-36" target="I8XCcLXyzaf88g92L11y-26">
          <mxGeometry relative="1" as="geometry">
            <Array as="points">
              <mxPoint x="70" y="110" />
            </Array>
          </mxGeometry>
        </mxCell>
        <mxCell id="T9fNchp1gU0LkEgGzQ4X-39" style="edgeStyle=orthogonalEdgeStyle;rounded=0;orthogonalLoop=1;jettySize=auto;html=1;jumpStyle=arc;jumpSize=10;" edge="1" parent="1" source="T9fNchp1gU0LkEgGzQ4X-28" target="O7OziRTvPOIsfuu7PIjR-1">
          <mxGeometry relative="1" as="geometry">
            <Array as="points">
              <mxPoint x="1280" y="110" />
              <mxPoint x="1280" y="1150" />
            </Array>
          </mxGeometry>
        </mxCell>
        <mxCell id="T9fNchp1gU0LkEgGzQ4X-40" style="edgeStyle=orthogonalEdgeStyle;rounded=0;orthogonalLoop=1;jettySize=auto;html=1;jumpStyle=arc;jumpSize=10;" edge="1" parent="1" source="T9fNchp1gU0LkEgGzQ4X-36" target="O7OziRTvPOIsfuu7PIjR-2">
          <mxGeometry relative="1" as="geometry">
            <Array as="points">
              <mxPoint x="960" y="130" />
            </Array>
          </mxGeometry>
        </mxCell>
        <mxCell id="T9fNchp1gU0LkEgGzQ4X-36" value="&lt;p style=&quot;margin:0px;margin-top:4px;text-align:center;&quot;&gt;&amp;lt;&amp;lt;control&amp;gt;&amp;gt;&lt;/p&gt;&lt;p style=&quot;margin:0px;margin-top:4px;text-align:center;&quot;&gt;GameSetupControl&lt;/p&gt;&lt;hr size=&quot;1&quot;&gt;&lt;p style=&quot;margin:0px;margin-left:4px;&quot;&gt;- DisplayControl&amp;amp;&lt;br&gt;&lt;/p&gt;&lt;p style=&quot;margin:0px;margin-left:4px;&quot;&gt;- ReadyUpControl&amp;amp;&lt;/p&gt;&lt;p style=&quot;margin:0px;margin-left:4px;&quot;&gt;- GameData_t&amp;amp;&lt;/p&gt;&lt;p style=&quot;margin:0px;margin-left:4px;&quot;&gt;- SpeakerControl&lt;/p&gt;&lt;hr size=&quot;1&quot;&gt;&lt;p style=&quot;margin:0px;margin-left:4px;&quot;&gt;+ _start()&lt;/p&gt;&lt;p style=&quot;margin:0px;margin-left:4px;&quot;&gt;+ sendGameData(GameData_t)&lt;/p&gt;" style="verticalAlign=top;align=left;overflow=fill;fontSize=12;fontFamily=Helvetica;html=1;whiteSpace=wrap;" vertex="1" parent="1">
          <mxGeometry x="265" y="30" width="180" height="160" as="geometry" />
        </mxCell>
        <mxCell id="T9fNchp1gU0LkEgGzQ4X-42" value="&amp;lt;&amp;lt;entity&amp;gt;&amp;gt;&lt;br&gt;GameData&lt;br&gt;(for clearer diagram)" style="rounded=1;whiteSpace=wrap;html=1;sketch=1;curveFitting=1;jiggle=2;" vertex="1" parent="1">
          <mxGeometry x="1330" y="653" width="120" height="60" as="geometry" />
        </mxCell>
        <mxCell id="T9fNchp1gU0LkEgGzQ4X-44" style="edgeStyle=orthogonalEdgeStyle;rounded=0;orthogonalLoop=1;jettySize=auto;html=1;" edge="1" parent="1" source="I8XCcLXyzaf88g92L11y-1" target="T9fNchp1gU0LkEgGzQ4X-42">
          <mxGeometry relative="1" as="geometry">
            <Array as="points">
              <mxPoint x="1140" y="970" />
              <mxPoint x="1140" y="740" />
              <mxPoint x="1360" y="740" />
            </Array>
          </mxGeometry>
        </mxCell>
        <mxCell id="T9fNchp1gU0LkEgGzQ4X-46" style="edgeStyle=orthogonalEdgeStyle;rounded=0;orthogonalLoop=1;jettySize=auto;html=1;" edge="1" parent="1" source="T9fNchp1gU0LkEgGzQ4X-19" target="O7OziRTvPOIsfuu7PIjR-1">
          <mxGeometry relative="1" as="geometry">
            <Array as="points">
              <mxPoint x="960" y="1285" />
            </Array>
          </mxGeometry>
        </mxCell>
        <mxCell id="T9fNchp1gU0LkEgGzQ4X-47" style="edgeStyle=orthogonalEdgeStyle;rounded=0;orthogonalLoop=1;jettySize=auto;html=1;jumpStyle=arc;jumpSize=10;" edge="1" parent="1" source="T9fNchp1gU0LkEgGzQ4X-18" target="O7OziRTvPOIsfuu7PIjR-2">
          <mxGeometry relative="1" as="geometry">
            <mxPoint x="459.9999999999998" y="1285.0000000000005" as="sourcePoint" />
            <mxPoint x="1045" y="430.0588235294117" as="targetPoint" />
            <Array as="points">
              <mxPoint x="1265" y="1330" />
              <mxPoint x="1265" y="430" />
            </Array>
          </mxGeometry>
        </mxCell>
      </root>
    </mxGraphModel>
  </diagram>
</mxfile>
